<svg width="60" height="60" viewBox="0 0 60 60" fill="none" xmlns="http://www.w3.org/2000/svg">
<path d="M30.3886 33.2361C38.4619 33.2361 45.0066 26.6914 45.0066 18.6181C45.0066 10.5447 38.4619 4 30.3886 4C22.3152 4 15.7705 10.5447 15.7705 18.6181C15.7705 26.6914 22.3152 33.2361 30.3886 33.2361Z" stroke="#4D4D4D" stroke-width="4" stroke-linecap="round" stroke-linejoin="round"/>
<path d="M53.7778 56.6252C53.7778 50.4221 51.3136 44.473 46.9273 40.0868C42.5411 35.7005 36.592 33.2363 30.3889 33.2363C24.1858 33.2363 18.2367 35.7005 13.8504 40.0868C9.46418 44.473 7 50.4221 7 56.6252M53.7778 56.6252C53.7778 50.4221 51.3136 44.473 46.9273 40.0868C42.5411 35.7005 36.592 33.2363 30.3889 33.2363C24.1858 33.2363 18.2367 35.7005 13.8504 40.0868C9.46418 44.473 7 50.4221 7 56.6252" stroke="#4D4D4D" stroke-width="4" stroke-linecap="round" stroke-linejoin="round"/>
</svg>
