<svg width="60" height="60" viewBox="0 0 60 60" fill="none" xmlns="http://www.w3.org/2000/svg">
<path d="M29.1664 58C28.2626 58 27.5044 57.6907 26.892 57.072C26.2816 56.4555 25.9764 55.6907 25.9764 54.7778V51.0722C23.5839 50.5352 21.4838 49.5954 19.6762 48.2528C17.8685 46.9102 16.4064 45.0306 15.2899 42.6139C14.9177 41.862 14.9039 41.0704 15.2484 40.2391C15.5951 39.4056 16.2203 38.8009 17.1241 38.425C17.8685 38.1028 18.6394 38.1167 19.4369 38.4669C20.2344 38.8149 20.8458 39.3917 21.2712 40.1972C22.175 41.8083 23.3181 43.0306 24.7004 43.8641C26.0828 44.6954 27.7841 45.1111 29.8044 45.1111C31.9843 45.1111 33.8324 44.6149 35.3487 43.6224C36.8629 42.6279 37.62 41.0833 37.62 38.9889C37.62 37.1093 37.0351 35.6184 35.8655 34.5164C34.6958 33.4166 31.9843 32.1685 27.7309 30.7722C23.1586 29.3222 20.0217 27.5908 18.3204 25.578C16.6191 23.563 15.7684 21.1056 15.7684 18.2056C15.7684 14.7148 16.8849 12.0028 19.1179 10.0694C21.3509 8.13611 23.6371 7.03519 25.9764 6.76667V3.22222C25.9764 2.30926 26.2816 1.54344 26.892 0.924778C27.5044 0.308259 28.2626 0 29.1664 0C30.0703 0 30.8284 0.308259 31.4409 0.924778C32.0513 1.54344 32.3565 2.30926 32.3565 3.22222V6.76667C34.3768 7.08889 36.1313 7.7473 37.62 8.74189C39.1086 9.73433 40.3315 10.9556 41.2885 12.4056C41.767 13.1037 41.8606 13.8824 41.5692 14.7417C41.2757 15.6009 40.6771 16.2185 39.7732 16.5944C39.0289 16.9167 38.258 16.9296 37.4605 16.6331C36.663 16.3388 35.9186 15.8157 35.2275 15.0639C34.5363 14.312 33.726 13.7342 32.7967 13.3303C31.8652 12.9286 30.7083 12.7278 29.3259 12.7278C26.9866 12.7278 25.2055 13.2519 23.9827 14.3002C22.7598 15.3464 22.1484 16.6481 22.1484 18.2056C22.1484 19.9778 22.9459 21.3741 24.5409 22.3944C26.1359 23.4148 28.9006 24.4889 32.835 25.6167C36.5035 26.6907 39.282 28.3953 41.1705 30.7303C43.0568 33.0675 44 35.7667 44 38.8278C44 42.6407 42.8835 45.5407 40.6505 47.5278C38.4175 49.5148 35.6528 50.75 32.3565 51.2333V54.7778C32.3565 55.6907 32.0513 56.4555 31.4409 57.072C30.8284 57.6907 30.0703 58 29.1664 58V58Z" fill="#4D4D4D"/>
</svg>
