<svg width="68" height="68" viewBox="0 0 68 68" fill="none" xmlns="http://www.w3.org/2000/svg">
<path d="M29.9667 47.4282C31.2667 48.6732 33.3667 48.6732 34.6667 47.4282L46.6333 35.9671C46.9423 35.6718 47.1875 35.321 47.3548 34.9348C47.522 34.5486 47.6081 34.1345 47.6081 33.7164C47.6081 33.2983 47.522 32.8843 47.3548 32.4981C47.1875 32.1119 46.9423 31.7611 46.6333 31.4657L34.6667 20.0047C34.0434 19.4078 33.1981 19.0724 32.3167 19.0724C31.4352 19.0724 30.5899 19.4078 29.9667 20.0047C29.3434 20.6016 28.9933 21.4112 28.9933 22.2554C28.9933 23.0996 29.3434 23.9092 29.9667 24.5061L36.2333 30.5399H7.33333C5.5 30.5399 4 31.9765 4 33.7324C4 35.4883 5.5 36.9249 7.33333 36.9249H36.2333L29.9667 42.9268C28.6667 44.1718 28.7 46.215 29.9667 47.4282ZM57.3333 5H10.6667C8.89856 5 7.20286 5.6727 5.95262 6.87012C4.70238 8.06753 4 9.69158 4 11.385V20.9624C4 22.7183 5.5 24.1549 7.33333 24.1549C9.16667 24.1549 10.6667 22.7183 10.6667 20.9624V14.5775C10.6667 12.8216 12.1667 11.385 14 11.385H54C55.8333 11.385 57.3333 12.8216 57.3333 14.5775V52.8873C57.3333 54.6432 55.8333 56.0798 54 56.0798H14C12.1667 56.0798 10.6667 54.6432 10.6667 52.8873V46.5023C10.6667 44.7465 9.16667 43.3099 7.33333 43.3099C5.5 43.3099 4 44.7465 4 46.5023V56.0798C4 59.5916 7 62.4648 10.6667 62.4648H57.3333C61 62.4648 64 59.5916 64 56.0798V11.385C64 7.87324 61 5 57.3333 5Z" fill="#FF003D"/>
</svg>
