<svg width="530" height="251" viewBox="0 0 530 251" fill="none" xmlns="http://www.w3.org/2000/svg">
<g clip-path="url(#clip0_25_99)">
<path d="M187.686 149.945H184.919C175.235 149.945 167.397 142.256 167.089 132.372L164.322 59.4193C163.707 45.4564 158.02 36.8277 144.186 36.8277C129.123 36.8277 122.052 51.8891 122.359 56.5957L124.665 131.275C124.972 141.63 116.825 150.101 106.835 150.101H104.375C94.6912 150.101 86.6982 142.256 86.5445 132.216L84.7 59.2624C84.0851 44.6718 76.3996 36.9846 65.6398 36.9846C53.9578 36.9846 43.8129 51.2614 43.8129 56.4388V131.903C43.8129 141.944 35.8199 150.101 25.8287 150.101H23.8305C13.993 150.101 6 141.944 6 131.903V23.3355C6 13.2946 13.993 5.13579 23.8305 5.13579H34.8976C36.8959 5.13579 38.7404 6.54806 39.2016 8.588L39.3552 9.37166C40.1238 12.3531 43.5054 13.7644 45.9648 12.0393C51.8059 8.11723 62.2582 2.46911 74.4014 2.46911C89.6187 2.46911 100.224 10.7839 104.836 15.3336C106.373 16.9028 108.833 16.9028 110.523 15.6475C118.517 9.37166 131.275 2.15527 149.873 2.15527C178.925 2.15527 200.751 24.7469 202.135 54.7127L205.517 131.118C206.131 141.316 197.985 149.945 187.686 149.945Z" fill="#FF003D"/>
<path d="M353.999 145.396C353.999 147.906 352 149.946 349.541 149.946H324.332C322.181 149.946 320.489 148.377 320.029 146.338C319.413 143.356 316.186 141.788 313.573 143.356C306.809 147.123 294.051 152.927 278.68 152.927C245.94 152.927 230.568 134.414 230.568 109.312C230.568 70.5603 274.377 58.6373 311.575 56.4404C314.187 56.2835 316.185 53.7728 315.725 51.1062C314.187 42.9483 309.114 34.1618 294.359 34.1618C279.448 34.1618 265.614 41.3791 259.005 45.6149C256.699 47.0272 253.779 46.0857 252.703 43.5759L242.866 21.1403C241.943 18.9444 242.866 16.4337 244.864 15.3353C252.703 11.0994 272.532 2 294.359 2C336.937 2 354.152 24.9054 354.152 63.187V145.396H353.999ZM315.11 107.273C316.032 106.488 316.493 105.233 316.493 103.977V90.956C316.493 88.4453 314.341 86.2494 311.882 86.4063C288.671 87.9755 267.921 95.1918 267.921 107.9C267.921 115.431 273.608 120.137 285.29 120.137C299.431 119.98 311.113 110.724 315.11 107.273Z" fill="#FF003D"/>
<path d="M452.68 131.43C493.413 132.057 526 166.573 526 206.579C526 211.443 525.384 216.777 524.924 219.916C524.77 221.484 523.386 222.582 521.849 222.582H490.031C488.186 222.582 486.803 221.013 487.11 219.131C487.418 216.15 487.879 211.6 487.879 207.364C487.879 186.498 470.202 165.318 447.453 165.318C440.382 165.318 431.006 168.613 423.321 173.476C417.326 177.241 409.487 176.143 404.876 170.653L393.501 157.16C392.425 155.905 392.578 154.179 393.654 152.924C400.11 146.335 409.18 139.745 416.25 136.607C417.326 136.137 418.094 135.039 418.094 133.783V124.527C418.094 123.272 417.326 122.173 416.25 121.703C397.189 112.917 382.28 90.953 382.28 66.7922C382.28 31.0213 409.026 4.97754 445.916 4.97754H519.082C520.773 4.97754 522.156 6.38981 522.156 8.11591V33.688C522.156 35.4141 520.773 36.8264 519.082 36.8264L504.019 36.3556C501.713 36.1987 500.177 38.7085 501.253 40.9053C504.326 46.7104 506.786 55.339 506.786 66.9491C506.786 97.0719 484.036 125.312 452.526 125.939V131.43H452.68ZM444.686 94.2473C460.365 94.2473 472.201 82.6372 472.201 66.1645C472.201 49.3771 460.211 37.1402 444.686 37.1402C430.238 37.1402 417.634 49.3771 417.634 66.1645C417.787 82.6372 430.238 94.2473 444.686 94.2473Z" fill="#FF003D"/>
<path d="M43.8473 218.416V223.292H21.4806V218.416H43.8473ZM57.6706 193.519V209.359H52.1706V198.542H23.864V243.642H34.4973V248.666H9.52734V243.642H18.4007V198.542H9.52734V193.519H57.6706Z" fill="#474747"/>
<path d="M88.2591 248.666C87.2568 248.666 86.4868 248.348 85.9491 247.712C85.4357 247.077 85.1791 246.184 85.1791 245.036V233.302L85.6557 232.092L85.3991 227.656L85.1791 225.346V222.376C85.1791 220.371 84.7635 218.733 83.9324 217.462C83.1257 216.191 81.9524 215.25 80.4124 214.639C78.8724 214.028 77.0146 213.722 74.8391 213.722C71.588 213.722 69.0702 214.37 67.2858 215.666C65.5258 216.937 64.3525 218.856 63.7658 221.422L58.7058 220.359C59.1947 217.792 60.1114 215.666 61.4558 213.979C62.8002 212.268 64.5847 210.997 66.8091 210.166C69.058 209.31 71.7958 208.882 75.0224 208.882C78.3958 208.882 81.2191 209.359 83.4924 210.312C85.7902 211.241 87.5257 212.671 88.6991 214.602C89.8724 216.533 90.4591 219.027 90.4591 222.082V244.119H96.2157V248.666H88.2591ZM69.8524 249.179C65.7947 249.179 62.7147 248.287 60.6125 246.502C58.5103 244.693 57.4591 242.041 57.4591 238.546C57.4591 235.319 58.388 232.862 60.2458 231.176C62.1036 229.465 65.0858 228.181 69.1924 227.326L86.7557 223.586V227.362L70.0724 231.139C67.6769 231.701 65.8802 232.532 64.6825 233.632C63.5091 234.708 62.9225 236.236 62.9225 238.216C62.9225 240.367 63.5825 241.98 64.9025 243.056C66.2225 244.107 68.1536 244.632 70.6958 244.632C73.5069 244.632 76.0247 243.985 78.2491 242.689C80.4735 241.393 82.2213 239.487 83.4924 236.969C84.7635 234.451 85.3991 231.347 85.3991 227.656L86.7924 236.309H84.9224C84.3113 240.391 82.7224 243.557 80.1558 245.806C77.6135 248.054 74.1791 249.179 69.8524 249.179Z" fill="#474747"/>
<path d="M122.661 249.362C118.603 249.362 115.071 248.507 112.064 246.796C109.082 245.084 106.76 242.726 105.098 239.719C103.46 236.688 102.641 233.205 102.641 229.269C102.641 226.287 103.093 223.561 103.998 221.092C104.902 218.599 106.198 216.448 107.884 214.639C109.571 212.806 111.575 211.4 113.898 210.422C116.22 209.42 118.811 208.919 121.671 208.919C124.433 208.919 126.731 209.371 128.564 210.276C130.422 211.156 131.864 212.378 132.891 213.942C133.918 215.482 134.578 217.255 134.871 219.259H136.154L135.091 224.796C134.773 222.596 134.052 220.665 132.928 219.002C131.803 217.316 130.336 216.008 128.528 215.079C126.719 214.126 124.629 213.649 122.258 213.649C119.422 213.649 116.929 214.321 114.778 215.666C112.651 216.986 110.989 218.819 109.791 221.166C108.618 223.488 108.031 226.189 108.031 229.269C108.031 232.251 108.63 234.891 109.828 237.189C111.05 239.462 112.749 241.247 114.924 242.542C117.124 243.838 119.715 244.486 122.698 244.486C125.778 244.486 128.43 243.813 130.654 242.469C132.879 241.1 134.504 239.267 135.531 236.969L140.408 239.132C139.014 242.286 136.778 244.779 133.698 246.612C130.642 248.446 126.963 249.362 122.661 249.362ZM135.091 224.796V209.616H140.371V224.796H135.091Z" fill="#474747"/>
<path d="M180.117 214.162H172.564V209.616H185.397V244.119H193.024V248.666H180.117V214.162ZM158.301 209.616V234.512C158.301 237.715 159.01 240.245 160.427 242.102C161.87 243.936 164.131 244.852 167.211 244.852C169.68 244.852 171.88 244.229 173.811 242.982C175.766 241.711 177.306 239.89 178.431 237.519C179.555 235.148 180.117 232.3 180.117 228.976L181.401 236.786H179.861C179.201 240.99 177.563 244.168 174.947 246.319C172.356 248.446 169.166 249.509 165.377 249.509C161.173 249.509 158.056 248.262 156.027 245.769C154.023 243.276 153.021 239.817 153.021 235.392V214.162H145.944V209.616H158.301Z" fill="#474747"/>
<path d="M211.019 244.119H219.049V248.666H197.709V244.119H205.739V195.279H197.709V190.732H211.019V244.119Z" fill="#474747"/>
<path d="M258.299 248.666V234.072L258.519 231.212V226.556L258.299 221.422V195.279H247.775V190.732H263.579V244.119H271.059V248.666H258.299ZM243.595 208.882C246.822 208.882 249.706 209.591 252.249 211.009C254.815 212.427 256.93 214.456 258.592 217.096C260.254 219.711 261.354 222.852 261.892 226.519L258.519 229.049C258.519 226.042 257.932 223.378 256.759 221.056C255.61 218.733 253.96 216.925 251.809 215.629C249.657 214.309 247.103 213.649 244.145 213.649C241.236 213.649 238.706 214.309 236.555 215.629C234.404 216.949 232.742 218.77 231.569 221.092C230.42 223.415 229.845 226.103 229.845 229.159C229.845 232.19 230.444 234.867 231.642 237.189C232.84 239.511 234.514 241.345 236.665 242.689C238.841 244.009 241.334 244.669 244.145 244.669C247.079 244.669 249.609 244.009 251.735 242.689C253.886 241.345 255.549 239.499 256.722 237.152C257.92 234.806 258.519 232.105 258.519 229.049L259.325 237.372H258.079C257.639 239.523 256.783 241.516 255.512 243.349C254.241 245.158 252.566 246.624 250.489 247.749C248.411 248.849 245.917 249.399 243.009 249.399C240.295 249.399 237.802 248.91 235.529 247.932C233.255 246.93 231.287 245.524 229.625 243.716C227.963 241.882 226.668 239.731 225.739 237.262C224.834 234.793 224.382 232.092 224.382 229.159C224.382 225.199 225.176 221.691 226.765 218.636C228.354 215.58 230.579 213.197 233.439 211.486C236.323 209.75 239.709 208.882 243.595 208.882Z" fill="#474747"/>
<path d="M308.76 248.666C307.758 248.666 306.988 248.348 306.45 247.712C305.936 247.077 305.68 246.184 305.68 245.036V233.302L306.156 232.092L305.9 227.656L305.68 225.346V222.376C305.68 220.371 305.264 218.733 304.433 217.462C303.626 216.191 302.453 215.25 300.913 214.639C299.373 214.028 297.515 213.722 295.34 213.722C292.089 213.722 289.571 214.37 287.786 215.666C286.026 216.937 284.853 218.856 284.266 221.422L279.207 220.359C279.695 217.792 280.612 215.666 281.957 213.979C283.301 212.268 285.085 210.997 287.31 210.166C289.559 209.31 292.296 208.882 295.523 208.882C298.896 208.882 301.72 209.359 303.993 210.312C306.291 211.241 308.026 212.671 309.2 214.602C310.373 216.533 310.96 219.027 310.96 222.082V244.119H316.716V248.666H308.76ZM290.353 249.179C286.295 249.179 283.215 248.287 281.113 246.502C279.011 244.693 277.96 242.041 277.96 238.546C277.96 235.319 278.889 232.862 280.747 231.176C282.604 229.465 285.586 228.181 289.693 227.326L307.256 223.586V227.362L290.573 231.139C288.178 231.701 286.381 232.532 285.183 233.632C284.01 234.708 283.423 236.236 283.423 238.216C283.423 240.367 284.083 241.98 285.403 243.056C286.723 244.107 288.654 244.632 291.196 244.632C294.008 244.632 296.525 243.985 298.75 242.689C300.974 241.393 302.722 239.487 303.993 236.969C305.264 234.451 305.9 231.347 305.9 227.656L307.293 236.309H305.423C304.812 240.391 303.223 243.557 300.656 245.806C298.114 248.054 294.68 249.179 290.353 249.179Z" fill="#474747"/>
<path d="M356.912 248.666V234.072L357.132 231.212V226.556L356.912 221.422V195.279H346.388V190.732H362.192V244.119H369.672V248.666H356.912ZM342.208 208.882C345.435 208.882 348.319 209.591 350.862 211.009C353.428 212.427 355.543 214.456 357.205 217.096C358.867 219.711 359.967 222.852 360.505 226.519L357.132 229.049C357.132 226.042 356.545 223.378 355.372 221.056C354.223 218.733 352.573 216.925 350.422 215.629C348.27 214.309 345.716 213.649 342.758 213.649C339.849 213.649 337.319 214.309 335.168 215.629C333.017 216.949 331.355 218.77 330.182 221.092C329.033 223.415 328.458 226.103 328.458 229.159C328.458 232.19 329.057 234.867 330.255 237.189C331.453 239.511 333.127 241.345 335.278 242.689C337.454 244.009 339.947 244.669 342.758 244.669C345.692 244.669 348.222 244.009 350.348 242.689C352.499 241.345 354.162 239.499 355.335 237.152C356.533 234.806 357.132 232.105 357.132 229.049L357.938 237.372H356.692C356.252 239.523 355.396 241.516 354.125 243.349C352.854 245.158 351.179 246.624 349.102 247.749C347.024 248.849 344.53 249.399 341.622 249.399C338.908 249.399 336.415 248.91 334.142 247.932C331.868 246.93 329.901 245.524 328.238 243.716C326.576 241.882 325.281 239.731 324.352 237.262C323.447 234.793 322.995 232.092 322.995 229.159C322.995 225.199 323.789 221.691 325.378 218.636C326.967 215.58 329.192 213.197 332.052 211.486C334.936 209.75 338.322 208.882 342.208 208.882Z" fill="#474747"/>
<path d="M395.218 249.362C391.185 249.362 387.69 248.507 384.732 246.796C381.774 245.084 379.488 242.726 377.875 239.719C376.262 236.688 375.455 233.205 375.455 229.269C375.455 225.285 376.262 221.765 377.875 218.709C379.513 215.653 381.786 213.258 384.695 211.522C387.628 209.787 391.038 208.919 394.925 208.919C398.836 208.919 402.222 209.775 405.082 211.486C407.942 213.197 410.142 215.568 411.682 218.599C413.222 221.63 413.992 225.126 413.992 229.086C413.992 229.55 413.979 229.917 413.955 230.186C413.955 230.455 413.931 230.687 413.882 230.882H408.675C408.699 230.589 408.712 230.271 408.712 229.929C408.736 229.562 408.748 229.147 408.748 228.682C408.748 225.773 408.186 223.195 407.062 220.946C405.962 218.672 404.385 216.888 402.332 215.592C400.278 214.297 397.809 213.649 394.925 213.649C392.114 213.649 389.645 214.321 387.518 215.666C385.392 216.986 383.742 218.819 382.568 221.166C381.395 223.488 380.808 226.189 380.808 229.269C380.808 232.251 381.383 234.891 382.532 237.189C383.705 239.462 385.367 241.247 387.518 242.542C389.67 243.838 392.224 244.486 395.182 244.486C398.262 244.486 400.926 243.765 403.175 242.322C405.448 240.856 407.135 238.863 408.235 236.346L413.222 238.216C411.779 241.662 409.469 244.388 406.292 246.392C403.138 248.372 399.447 249.362 395.218 249.362ZM378.792 230.882V226.812H412.305L413.845 230.882H378.792Z" fill="#474747"/>
<path d="M440.708 249.362C438.092 249.362 435.88 248.971 434.071 248.189C432.287 247.407 430.869 246.368 429.818 245.072C428.767 243.752 428.082 242.286 427.765 240.672H426.445L427.508 236.346C427.972 238.912 429.243 241.002 431.321 242.616C433.423 244.229 436.149 245.036 439.498 245.036C442.358 245.036 444.57 244.461 446.135 243.312C447.723 242.139 448.518 240.44 448.518 238.216C448.518 236.187 447.736 234.61 446.171 233.486C444.607 232.361 441.869 231.506 437.958 230.919C432.36 230.039 428.376 228.658 426.005 226.776C423.633 224.869 422.448 222.363 422.448 219.259C422.448 216.13 423.536 213.625 425.711 211.742C427.887 209.86 430.918 208.919 434.805 208.919C437.371 208.919 439.486 209.31 441.148 210.092C442.835 210.875 444.13 211.926 445.035 213.246C445.939 214.541 446.526 215.971 446.795 217.536H448.115L447.051 221.679C446.611 219.186 445.413 217.157 443.458 215.592C441.502 214.003 438.948 213.209 435.795 213.209C433.252 213.209 431.26 213.747 429.818 214.822C428.4 215.898 427.691 217.328 427.691 219.112C427.691 220.995 428.583 222.473 430.368 223.549C432.152 224.6 434.963 225.431 438.801 226.042C444.228 226.898 448.078 228.303 450.351 230.259C452.624 232.215 453.761 234.855 453.761 238.179C453.761 241.675 452.637 244.412 450.388 246.392C448.163 248.372 444.937 249.362 440.708 249.362ZM422.228 248.666V236.346H427.508V248.666H422.228ZM447.051 221.679V209.616H452.331V221.679H447.051Z" fill="#474747"/>
</g>
<defs>
<clipPath id="clip0_25_99">
<rect width="530" height="251" fill="white"/>
</clipPath>
</defs>
</svg>
