<svg width="137" height="69" viewBox="0 0 137 69" fill="none" xmlns="http://www.w3.org/2000/svg">
<path d="M48.9676 37.6172H48.2829C45.886 37.6172 43.946 35.7143 43.8697 33.268L43.185 15.212C43.0328 11.7562 41.6252 9.62056 38.2013 9.62056C34.4731 9.62056 32.7231 13.3483 32.7991 14.5132L33.3697 32.9964C33.4457 35.5592 31.4294 37.656 28.9568 37.656H28.3481C25.9512 37.656 23.9729 35.7143 23.9349 33.2292L23.4784 15.1732C23.3262 11.562 21.424 9.65939 18.761 9.65939C15.8696 9.65939 13.3588 13.1929 13.3588 14.4743V33.1518C13.3588 35.6369 11.3805 37.656 8.90765 37.656H8.41307C5.97828 37.656 4 35.6369 4 33.1518V6.28121C4 3.79607 5.97828 1.77674 8.41307 1.77674H11.1522C11.6468 1.77674 12.1033 2.12628 12.2174 2.63117L12.2555 2.82513C12.4457 3.56305 13.2827 3.91235 13.8914 3.48537C15.337 2.51466 17.924 1.11674 20.9295 1.11674C24.6958 1.11674 27.3207 3.17467 28.462 4.30073C28.8426 4.68911 29.4512 4.6891 29.8697 4.3784C31.8481 2.82513 35.0057 1.03906 39.6089 1.03906C46.7992 1.03906 52.2013 6.63052 52.5437 14.0471L53.3808 32.9576C53.5329 35.4816 51.5166 37.6172 48.9676 37.6172Z" fill="#FF003D"/>
<path d="M90.1303 36.4909C90.1303 37.112 89.6356 37.6169 89.0269 37.6169H82.7877C82.2553 37.6169 81.8366 37.2286 81.7227 36.7239C81.5703 35.986 80.7716 35.5978 80.1248 35.986C78.4508 36.9181 75.2932 38.3546 71.4887 38.3546C63.3855 38.3546 59.5811 33.7727 59.5811 27.5598C59.5811 17.9688 70.4237 15.0178 79.6303 14.4741C80.2769 14.4353 80.7714 13.8139 80.6574 13.1539C80.2769 11.1348 79.0214 8.96009 75.3692 8.96009C71.679 8.96009 68.255 10.7464 66.6192 11.7948C66.0484 12.1443 65.3258 11.9113 65.0595 11.2901L62.6247 5.73726C62.3963 5.19377 62.6247 4.57237 63.1192 4.3005C65.0595 3.25212 69.9671 1 75.3692 1C85.9074 1 90.1682 6.66914 90.1682 16.1439V36.4909H90.1303ZM80.5053 27.0552C80.7335 26.861 80.8476 26.5503 80.8476 26.2396V23.0168C80.8476 22.3954 80.315 21.8519 79.7063 21.8907C73.9616 22.2791 68.8258 24.0651 68.8258 27.2105C68.8258 29.0743 70.2334 30.2392 73.1247 30.2392C76.6248 30.2003 79.5161 27.9094 80.5053 27.0552Z" fill="#FF003D"/>
<path d="M114.554 33.0346C124.635 33.1898 132.701 41.7324 132.701 51.6342C132.701 52.8379 132.548 54.1581 132.434 54.9349C132.396 55.323 132.054 55.5949 131.673 55.5949H123.798C123.342 55.5949 122.999 55.2065 123.075 54.7407C123.152 54.0028 123.266 52.8767 123.266 51.8283C123.266 46.6639 118.891 41.4219 113.26 41.4219C111.51 41.4219 109.19 42.2373 107.288 43.441C105.804 44.3729 103.864 44.101 102.722 42.7422L99.907 39.4026C99.6407 39.0921 99.6786 38.6649 99.9449 38.3542C101.543 36.7235 103.788 35.0926 105.538 34.3158C105.804 34.1995 105.994 33.9277 105.994 33.617V31.326C105.994 31.0153 105.804 30.7435 105.538 30.6272C100.82 28.4525 97.1299 23.0164 97.1299 17.0365C97.1299 8.18319 103.749 1.7373 112.88 1.7373H130.989C131.407 1.7373 131.749 2.08684 131.749 2.51406V8.8432C131.749 9.27042 131.407 9.61995 130.989 9.61995L127.26 9.50344C126.69 9.4646 126.309 10.0858 126.576 10.6295C127.337 12.0663 127.945 14.2019 127.945 17.0754C127.945 24.5308 122.315 31.5202 114.516 31.6756V33.0346H114.554ZM112.575 23.8317C116.456 23.8317 119.385 20.9582 119.385 16.8812C119.385 12.7263 116.418 9.69763 112.575 9.69763C108.999 9.69763 105.88 12.7263 105.88 16.8812C105.918 20.9582 108.999 23.8317 112.575 23.8317Z" fill="#FF003D"/>
<path d="M13.3673 54.5636V55.7706H7.83151V54.5636H13.3673ZM16.7886 48.4016V52.322H15.4273V49.6449H8.42139V60.8072H11.0532V62.0505H4.87305V60.8072H7.06921V49.6449H4.87305V48.4016H16.7886Z" fill="#474747"/>
<path d="M24.3593 62.0505C24.1112 62.0505 23.9207 61.9718 23.7876 61.8145C23.6605 61.6572 23.597 61.4364 23.597 61.1521V58.248L23.715 57.9486L23.6514 56.8505L23.597 56.2788V55.5437C23.597 55.0476 23.4941 54.6422 23.2884 54.3276C23.0888 54.013 22.7984 53.7801 22.4172 53.6288C22.0361 53.4776 21.5763 53.402 21.0378 53.402C20.2332 53.402 19.61 53.5623 19.1684 53.8829C18.7328 54.1975 18.4424 54.6725 18.2972 55.3077L17.0448 55.0445C17.1658 54.4093 17.3927 53.8829 17.7254 53.4655C18.0582 53.042 18.4998 52.7274 19.0504 52.5217C19.607 52.3099 20.2846 52.2041 21.0832 52.2041C21.9181 52.2041 22.6169 52.322 23.1795 52.558C23.7482 52.7879 24.1778 53.1418 24.4682 53.6198C24.7586 54.0977 24.9038 54.7148 24.9038 55.4711V60.9252H26.3286V62.0505H24.3593ZM19.8036 62.1775C18.7993 62.1775 18.037 61.9567 17.5167 61.5151C16.9964 61.0674 16.7363 60.4109 16.7363 59.5458C16.7363 58.7472 16.9662 58.1391 17.426 57.7217C17.8858 57.2982 18.6239 56.9806 19.6403 56.7688L23.9872 55.8432V56.7779L19.8581 57.7126C19.2652 57.8518 18.8205 58.0575 18.524 58.3297C18.2336 58.5959 18.0884 58.974 18.0884 59.4641C18.0884 59.9965 18.2518 60.3958 18.5785 60.662C18.9052 60.9221 19.3831 61.0522 20.0123 61.0522C20.7081 61.0522 21.3312 60.8919 21.8818 60.5712C22.4324 60.2506 22.8649 59.7787 23.1795 59.1555C23.4941 58.5324 23.6514 57.764 23.6514 56.8505L23.9963 58.9922H23.5335C23.3822 60.0025 22.989 60.786 22.3537 61.3426C21.7245 61.8992 20.8745 62.1775 19.8036 62.1775Z" fill="#474747"/>
<path d="M32.8738 62.2229C31.8695 62.2229 30.9953 62.0112 30.2511 61.5877C29.513 61.1642 28.9383 60.5803 28.5269 59.8362C28.1215 59.086 27.9188 58.2238 27.9188 57.2498C27.9188 56.5117 28.0308 55.8371 28.2546 55.226C28.4785 54.6089 28.7991 54.0765 29.2166 53.6288C29.634 53.1751 30.1301 52.8272 30.7049 52.5852C31.2796 52.3372 31.9209 52.2131 32.6288 52.2131C33.3124 52.2131 33.8811 52.3251 34.3349 52.5489C34.7947 52.7667 35.1516 53.0692 35.4057 53.4564C35.6598 53.8376 35.8232 54.2762 35.8958 54.7723H36.2134L35.9502 56.1426C35.8716 55.5981 35.6931 55.1202 35.4148 54.7088C35.1365 54.2913 34.7735 53.9676 34.3258 53.7377C33.8781 53.5018 33.3608 53.3838 32.774 53.3838C32.0722 53.3838 31.4551 53.5502 30.9227 53.8829C30.3963 54.2096 29.9849 54.6634 29.6885 55.2442C29.3981 55.819 29.2529 56.4875 29.2529 57.2498C29.2529 57.9879 29.4011 58.6413 29.6975 59.21C30 59.7726 30.4205 60.2143 30.959 60.5349C31.5035 60.8556 32.1448 61.0159 32.8829 61.0159C33.6452 61.0159 34.3016 60.8496 34.8522 60.5168C35.4027 60.178 35.805 59.7242 36.0591 59.1555L37.2661 59.691C36.9213 60.4714 36.3677 61.0885 35.6054 61.5423C34.8491 61.996 33.9386 62.2229 32.8738 62.2229ZM35.9502 56.1426V52.3856H37.257V56.1426H35.9502Z" fill="#474747"/>
<path d="M47.0944 53.5109H45.2249V52.3856H48.4012V60.9252H50.2888V62.0505H47.0944V53.5109ZM41.6947 52.3856V58.5475C41.6947 59.3401 41.8702 59.9662 42.2211 60.426C42.578 60.8798 43.1377 61.1067 43.9 61.1067C44.511 61.1067 45.0555 60.9524 45.5335 60.6438C46.0175 60.3292 46.3986 59.8785 46.6769 59.2917C46.9552 58.7048 47.0944 58 47.0944 57.1772L47.412 59.1102H47.0309C46.8675 60.1508 46.4622 60.9373 45.8148 61.4697C45.1735 61.996 44.384 62.2592 43.4462 62.2592C42.4056 62.2592 41.6342 61.9507 41.1321 61.3336C40.636 60.7164 40.3879 59.8604 40.3879 58.7653V53.5109H38.6365V52.3856H41.6947Z" fill="#474747"/>
<path d="M54.7425 60.9252H56.73V62.0505H51.4483V60.9252H53.4357V48.8372H51.4483V47.7119H54.7425V60.9252Z" fill="#474747"/>
<path d="M66.4444 62.0505V58.4386L66.4988 57.7308V56.5782L66.4444 55.3077V48.8372H63.8398V47.7119H67.7512V60.9252H69.6025V62.0505H66.4444ZM62.8053 52.2041C63.6039 52.2041 64.3178 52.3795 64.947 52.7304C65.5822 53.0813 66.1056 53.5835 66.517 54.2369C66.9284 54.8842 67.2006 55.6617 67.3337 56.5692L66.4988 57.1953C66.4988 56.4512 66.3536 55.7917 66.0632 55.217C65.7789 54.6422 65.3705 54.1945 64.8381 53.8739C64.3057 53.5472 63.6734 53.3838 62.9414 53.3838C62.2214 53.3838 61.5953 53.5472 61.0629 53.8739C60.5305 54.2006 60.1191 54.6513 59.8287 55.226C59.5443 55.8008 59.4021 56.4663 59.4021 57.2226C59.4021 57.9728 59.5504 58.6352 59.8468 59.21C60.1433 59.7847 60.5577 60.2385 61.0901 60.5712C61.6285 60.898 62.2456 61.0613 62.9414 61.0613C63.6674 61.0613 64.2936 60.898 64.8199 60.5712C65.3523 60.2385 65.7637 59.7817 66.0541 59.2009C66.3506 58.6201 66.4988 57.9516 66.4988 57.1953L66.6985 59.2554H66.3899C66.281 59.7878 66.0693 60.2808 65.7547 60.7346C65.4401 61.1823 65.0256 61.5453 64.5114 61.8236C63.9971 62.0959 63.38 62.232 62.6601 62.232C61.9885 62.232 61.3714 62.111 60.8088 61.869C60.2461 61.6209 59.7591 61.2731 59.3477 60.8253C58.9363 60.3716 58.6156 59.8392 58.3857 59.2281C58.1619 58.6171 58.0499 57.9486 58.0499 57.2226C58.0499 56.2425 58.2466 55.3743 58.6398 54.618C59.0331 53.8618 59.5836 53.2719 60.2915 52.8484C61.0054 52.4188 61.8433 52.2041 62.8053 52.2041Z" fill="#474747"/>
<path d="M78.9336 62.0505C78.6856 62.0505 78.495 61.9718 78.3619 61.8145C78.2348 61.6572 78.1713 61.4364 78.1713 61.1521V58.248L78.2893 57.9486L78.2258 56.8505L78.1713 56.2788V55.5437C78.1713 55.0476 78.0685 54.6422 77.8628 54.3276C77.6631 54.013 77.3727 53.7801 76.9915 53.6288C76.6104 53.4776 76.1506 53.402 75.6121 53.402C74.8075 53.402 74.1843 53.5623 73.7427 53.8829C73.3071 54.1975 73.0167 54.6725 72.8715 55.3077L71.6191 55.0445C71.7401 54.4093 71.967 53.8829 72.2997 53.4655C72.6325 53.042 73.0742 52.7274 73.6247 52.5217C74.1813 52.3099 74.8589 52.2041 75.6575 52.2041C76.4924 52.2041 77.1912 52.322 77.7538 52.558C78.3226 52.7879 78.7521 53.1418 79.0425 53.6198C79.3329 54.0977 79.4781 54.7148 79.4781 55.4711V60.9252H80.9029V62.0505H78.9336ZM74.3779 62.1775C73.3736 62.1775 72.6113 61.9567 72.091 61.5151C71.5707 61.0674 71.3106 60.4109 71.3106 59.5458C71.3106 58.7472 71.5405 58.1391 72.0003 57.7217C72.4601 57.2982 73.1982 56.9806 74.2146 56.7688L78.5615 55.8432V56.7779L74.4324 57.7126C73.8395 57.8518 73.3948 58.0575 73.0984 58.3297C72.808 58.5959 72.6628 58.974 72.6628 59.4641C72.6628 59.9965 72.8261 60.3958 73.1528 60.662C73.4795 60.9221 73.9575 61.0522 74.5867 61.0522C75.2824 61.0522 75.9056 60.8919 76.4561 60.5712C77.0067 60.2506 77.4392 59.7787 77.7538 59.1555C78.0685 58.5324 78.2258 57.764 78.2258 56.8505L78.5706 58.9922H78.1078C77.9565 60.0025 77.5633 60.786 76.928 61.3426C76.2988 61.8992 75.4488 62.1775 74.3779 62.1775Z" fill="#474747"/>
<path d="M90.8513 62.0505V58.4386L90.9057 57.7308V56.5782L90.8513 55.3077V48.8372H88.2467V47.7119H92.1581V60.9252H94.0094V62.0505H90.8513ZM87.2122 52.2041C88.0108 52.2041 88.7247 52.3795 89.3539 52.7304C89.9891 53.0813 90.5125 53.5835 90.9239 54.2369C91.3353 54.8842 91.6075 55.6617 91.7406 56.5692L90.9057 57.1953C90.9057 56.4512 90.7605 55.7917 90.4701 55.217C90.1858 54.6422 89.7774 54.1945 89.245 53.8739C88.7126 53.5472 88.0803 53.3838 87.3483 53.3838C86.6283 53.3838 86.0022 53.5472 85.4698 53.8739C84.9374 54.2006 84.526 54.6513 84.2356 55.226C83.9512 55.8008 83.809 56.4663 83.809 57.2226C83.809 57.9728 83.9573 58.6352 84.2537 59.21C84.5502 59.7847 84.9646 60.2385 85.497 60.5712C86.0354 60.898 86.6525 61.0613 87.3483 61.0613C88.0743 61.0613 88.7005 60.898 89.2268 60.5712C89.7592 60.2385 90.1706 59.7817 90.461 59.2009C90.7575 58.6201 90.9057 57.9516 90.9057 57.1953L91.1054 59.2554H90.7968C90.6879 59.7878 90.4762 60.2808 90.1616 60.7346C89.847 61.1823 89.4325 61.5453 88.9183 61.8236C88.404 62.0959 87.7869 62.232 87.067 62.232C86.3954 62.232 85.7783 62.111 85.2157 61.869C84.653 61.6209 84.166 61.2731 83.7546 60.8253C83.3432 60.3716 83.0225 59.8392 82.7926 59.2281C82.5688 58.6171 82.4568 57.9486 82.4568 57.2226C82.4568 56.2425 82.6535 55.3743 83.0467 54.618C83.44 53.8618 83.9905 53.2719 84.6984 52.8484C85.4123 52.4188 86.2502 52.2041 87.2122 52.2041Z" fill="#474747"/>
<path d="M100.332 62.2229C99.334 62.2229 98.4689 62.0112 97.7368 61.5877C97.0048 61.1642 96.4391 60.5803 96.0398 59.8362C95.6405 59.086 95.4408 58.2238 95.4408 57.2498C95.4408 56.2636 95.6405 55.3924 96.0398 54.6362C96.4451 53.8799 97.0078 53.287 97.7277 52.8575C98.4537 52.4279 99.2977 52.2131 100.26 52.2131C101.228 52.2131 102.066 52.4249 102.773 52.8484C103.481 53.2719 104.026 53.8587 104.407 54.6089C104.788 55.3591 104.979 56.2243 104.979 57.2044C104.979 57.3194 104.976 57.4101 104.97 57.4767C104.97 57.5432 104.964 57.6007 104.951 57.6491H103.663C103.669 57.5765 103.672 57.4978 103.672 57.4131C103.678 57.3224 103.681 57.2195 103.681 57.1046C103.681 56.3846 103.542 55.7464 103.264 55.1897C102.991 54.6271 102.601 54.1854 102.093 53.8648C101.585 53.5441 100.974 53.3838 100.26 53.3838C99.5639 53.3838 98.9529 53.5502 98.4265 53.8829C97.9002 54.2096 97.4918 54.6634 97.2014 55.2442C96.911 55.819 96.7658 56.4875 96.7658 57.2498C96.7658 57.9879 96.9079 58.6413 97.1923 59.21C97.4827 59.7726 97.8941 60.2143 98.4265 60.5349C98.9589 60.8556 99.5911 61.0159 100.323 61.0159C101.085 61.0159 101.745 60.8374 102.302 60.4805C102.864 60.1175 103.282 59.6244 103.554 59.0013L104.788 59.4641C104.431 60.3171 103.859 60.9917 103.073 61.4878C102.292 61.9779 101.379 62.2229 100.332 62.2229ZM96.2667 57.6491V56.6418H104.561L104.942 57.6491H96.2667Z" fill="#474747"/>
<path d="M111.591 62.2229C110.944 62.2229 110.396 62.1261 109.948 61.9325C109.507 61.7389 109.156 61.4818 108.896 61.1611C108.636 60.8344 108.466 60.4714 108.388 60.0721H108.061L108.324 59.0013C108.439 59.6365 108.754 60.1538 109.268 60.5531C109.788 60.9524 110.463 61.1521 111.292 61.1521C111.999 61.1521 112.547 61.0099 112.934 60.7255C113.327 60.4351 113.524 60.0146 113.524 59.4641C113.524 58.9619 113.33 58.5717 112.943 58.2934C112.556 58.0151 111.878 57.8034 110.91 57.6582C109.525 57.4404 108.539 57.0985 107.952 56.6327C107.365 56.1608 107.072 55.5407 107.072 54.7723C107.072 53.9979 107.341 53.3778 107.879 52.9119C108.418 52.4461 109.168 52.2131 110.13 52.2131C110.765 52.2131 111.289 52.3099 111.7 52.5035C112.117 52.6971 112.438 52.9573 112.662 53.284C112.886 53.6046 113.031 53.9586 113.097 54.3458H113.424L113.161 55.3712C113.052 54.7541 112.756 54.252 112.272 53.8648C111.788 53.4715 111.155 53.2749 110.375 53.2749C109.746 53.2749 109.253 53.408 108.896 53.6742C108.545 53.9404 108.369 54.2943 108.369 54.736C108.369 55.2018 108.59 55.5679 109.032 55.8341C109.473 56.0942 110.169 56.2999 111.119 56.4512C112.462 56.6629 113.415 57.0108 113.978 57.4948C114.54 57.9788 114.822 58.6322 114.822 59.455C114.822 60.3202 114.543 60.9978 113.987 61.4878C113.436 61.9779 112.638 62.2229 111.591 62.2229ZM107.017 62.0505V59.0013H108.324V62.0505H107.017ZM113.161 55.3712V52.3856H114.468V55.3712H113.161Z" fill="#474747"/>
</svg>
