<svg width="60" height="60" viewBox="0 0 60 60" fill="none" xmlns="http://www.w3.org/2000/svg">
<path fill-rule="evenodd" clip-rule="evenodd" d="M30.3886 6C23.4198 6 17.7705 11.6493 17.7705 18.6181C17.7705 25.5868 23.4198 31.2361 30.3886 31.2361C37.3573 31.2361 43.0066 25.5868 43.0066 18.6181C43.0066 11.6493 37.3573 6 30.3886 6ZM13.7705 18.6181C13.7705 9.44016 21.2107 2 30.3886 2C39.5665 2 47.0066 9.44016 47.0066 18.6181C47.0066 24.6035 43.8422 29.8499 39.0951 32.7755C42.5376 34.0322 45.7005 36.0313 48.3415 38.6723C53.1029 43.4337 55.7778 49.8914 55.7778 56.625C55.7778 57.7296 54.8823 58.625 53.7778 58.625C52.6732 58.625 51.7778 57.7296 51.7778 56.625C51.7778 50.9523 49.5243 45.512 45.5131 41.5008C42.095 38.0826 37.6391 35.9409 32.8859 35.3823C32.8878 35.4213 32.8887 35.4605 32.8887 35.5V54.5C32.8887 55.8807 31.7694 57 30.3887 57C29.008 57 27.8887 55.8807 27.8887 54.5V35.5C27.8887 35.4606 27.8896 35.4213 27.8914 35.3823C23.1384 35.941 18.6827 38.0827 15.2647 41.5008C11.2535 45.512 9 50.9523 9 56.625C9 57.7296 8.10457 58.625 7 58.625C5.89543 58.625 5 57.7296 5 56.625C5 49.8914 7.67489 43.4337 12.4362 38.6723C15.0772 36.0314 18.24 34.0324 21.6823 32.7757C16.935 29.8501 13.7705 24.6036 13.7705 18.6181Z" fill="#4D4D4D"/>
</svg>
